<svg xmlns="http://www.w3.org/2000/svg" xmlns:xlink="http://www.w3.org/1999/xlink" width="500" zoomAndPan="magnify" viewBox="0 0 375 374.999991" height="500" preserveAspectRatio="xMidYMid meet" version="1.0"><metadata/><defs><g/><clipPath id="80ee0688bc"><path d="M 39 84.375 L 336 84.375 L 336 290.625 L 39 290.625 Z M 39 84.375 " clip-rule="nonzero"/></clipPath></defs><g clip-path="url(#80ee0688bc)"><path fill="#31f65d" d="M 200.914062 84.515625 L 174.695312 108.070312 L 121.855469 91.410156 L 109.699219 119.761719 L 69.898438 129.71875 L 69.898438 175.023438 L 39.496094 205.476562 L 64.585938 245.648438 L 53.320312 290.625 L 265.4375 290.625 C 303.941406 290.625 335.273438 259.292969 335.273438 220.789062 L 298.074219 220.789062 L 293.417969 202.164062 L 293.417969 164.175781 L 267.019531 150.996094 L 262.320312 113.523438 L 232.058594 113.523438 Z M 200.675781 109.707031 L 224.699219 132.09375 L 245.832031 132.09375 L 249.699219 163.144531 L 274.703125 175.675781 L 274.703125 202.121094 L 265.621094 202.121094 C 260.683594 192.296875 252.074219 184.617188 241.550781 181.078125 C 237.359375 179.636719 232.847656 178.839844 228.148438 178.839844 L 223.492188 178.839844 L 200.210938 271.957031 L 94.722656 271.957031 L 101.324219 245.46875 L 81.71875 214.132812 L 104.90625 190.945312 L 104.90625 155.789062 L 136.570312 147.878906 L 148.90625 119.527344 L 179.261719 128.972656 Z M 237.132812 199.226562 C 245.558594 202.765625 251.515625 211.105469 251.515625 220.789062 L 279.453125 220.789062 L 284.105469 239.410156 L 313.160156 239.410156 C 305.710938 258.453125 287.179688 272.003906 265.484375 272.003906 L 218.925781 272.003906 Z M 260.828125 225.445312 C 260.214844 225.445312 259.609375 225.503906 259.011719 225.625 C 258.410156 225.742188 257.828125 225.917969 257.265625 226.152344 C 256.699219 226.386719 256.164062 226.675781 255.65625 227.011719 C 255.148438 227.351562 254.675781 227.738281 254.242188 228.171875 C 253.8125 228.605469 253.425781 229.074219 253.085938 229.582031 C 252.746094 230.089844 252.460938 230.628906 252.226562 231.191406 C 251.992188 231.757812 251.816406 232.339844 251.695312 232.9375 C 251.578125 233.539062 251.515625 234.144531 251.515625 234.757812 C 251.515625 235.367188 251.578125 235.972656 251.695312 236.574219 C 251.816406 237.171875 251.992188 237.753906 252.226562 238.320312 C 252.460938 238.882812 252.746094 239.421875 253.085938 239.929688 C 253.425781 240.4375 253.8125 240.90625 254.242188 241.339844 C 254.675781 241.773438 255.148438 242.160156 255.65625 242.5 C 256.164062 242.835938 256.699219 243.125 257.265625 243.359375 C 257.828125 243.59375 258.410156 243.769531 259.011719 243.886719 C 259.609375 244.007812 260.214844 244.066406 260.828125 244.066406 C 261.441406 244.066406 262.046875 244.007812 262.644531 243.886719 C 263.246094 243.769531 263.828125 243.59375 264.390625 243.359375 C 264.957031 243.125 265.492188 242.835938 266 242.5 C 266.507812 242.160156 266.980469 241.773438 267.414062 241.339844 C 267.84375 240.90625 268.230469 240.4375 268.570312 239.929688 C 268.910156 239.421875 269.195312 238.882812 269.429688 238.320312 C 269.664062 237.753906 269.839844 237.171875 269.960938 236.574219 C 270.078125 235.972656 270.140625 235.367188 270.140625 234.757812 C 270.140625 234.144531 270.078125 233.539062 269.960938 232.9375 C 269.839844 232.339844 269.664062 231.757812 269.429688 231.191406 C 269.195312 230.628906 268.910156 230.089844 268.570312 229.582031 C 268.230469 229.074219 267.84375 228.605469 267.414062 228.171875 C 266.980469 227.738281 266.507812 227.351562 266 227.011719 C 265.492188 226.675781 264.957031 226.386719 264.390625 226.152344 C 263.828125 225.917969 263.246094 225.742188 262.644531 225.625 C 262.046875 225.503906 261.441406 225.445312 260.828125 225.445312 Z M 260.828125 225.445312 " fill-opacity="1" fill-rule="nonzero"/></g><g fill="#31f65d" fill-opacity="1"><g transform="translate(78.951753, 149.959442)"><g><path d="M 4.640625 -7.46875 C 3.722656 -7.46875 3.007812 -7.171875 2.5 -6.578125 C 2 -5.992188 1.75 -5.191406 1.75 -4.171875 C 1.75 -3.160156 2.007812 -2.34375 2.53125 -1.71875 C 3.0625 -1.101562 3.78125 -0.796875 4.6875 -0.796875 C 5.84375 -0.796875 6.710938 -1.367188 7.296875 -2.515625 L 8.203125 -2.0625 C 7.867188 -1.351562 7.394531 -0.8125 6.78125 -0.4375 C 6.164062 -0.0625 5.453125 0.125 4.640625 0.125 C 3.804688 0.125 3.082031 -0.046875 2.46875 -0.390625 C 1.863281 -0.742188 1.398438 -1.238281 1.078125 -1.875 C 0.765625 -2.519531 0.609375 -3.285156 0.609375 -4.171875 C 0.609375 -5.484375 0.960938 -6.507812 1.671875 -7.25 C 2.390625 -8 3.375 -8.375 4.625 -8.375 C 5.507812 -8.375 6.242188 -8.203125 6.828125 -7.859375 C 7.421875 -7.515625 7.859375 -7.003906 8.140625 -6.328125 L 7.078125 -5.984375 C 6.878906 -6.460938 6.566406 -6.828125 6.140625 -7.078125 C 5.722656 -7.335938 5.222656 -7.46875 4.640625 -7.46875 Z M 4.640625 -7.46875 "/></g></g><g transform="translate(87.617768, 149.959442)"><g><path d="M 1.109375 0 L 1.109375 -8.25 L 2.234375 -8.25 L 2.234375 0 Z M 1.109375 0 "/></g></g><g transform="translate(90.951752, 149.959442)"><g><path d="M 8.859375 0 L 7.515625 0 L 6.09375 -5.25 C 6 -5.570312 5.859375 -6.160156 5.671875 -7.015625 C 5.578125 -6.554688 5.492188 -6.175781 5.421875 -5.875 C 5.347656 -5.570312 4.816406 -3.613281 3.828125 0 L 2.484375 0 L 0.046875 -8.25 L 1.21875 -8.25 L 2.703125 -3.015625 C 2.878906 -2.359375 3.039062 -1.679688 3.1875 -0.984375 C 3.28125 -1.410156 3.390625 -1.878906 3.515625 -2.390625 C 3.640625 -2.898438 4.179688 -4.851562 5.140625 -8.25 L 6.21875 -8.25 L 7.640625 -3.125 C 7.859375 -2.28125 8.03125 -1.566406 8.15625 -0.984375 L 8.21875 -1.1875 C 8.320312 -1.632812 8.40625 -2 8.46875 -2.28125 C 8.539062 -2.570312 9.09375 -4.5625 10.125 -8.25 L 11.28125 -8.25 Z M 8.859375 0 "/></g></g><g transform="translate(102.277923, 149.959442)"><g><path d="M 0.984375 0 L 0.984375 -8.25 L 7.25 -8.25 L 7.25 -7.34375 L 2.109375 -7.34375 L 2.109375 -4.6875 L 6.890625 -4.6875 L 6.890625 -3.796875 L 2.109375 -3.796875 L 2.109375 -0.921875 L 7.484375 -0.921875 L 7.484375 0 Z M 0.984375 0 "/></g></g><g transform="translate(110.281829, 149.959442)"><g><path d="M 1.109375 0 L 1.109375 -8.25 L 2.234375 -8.25 L 2.234375 0 Z M 1.109375 0 "/></g></g></g></svg>